<?xml version="1.0" standalone="no"?>
<!DOCTYPE svg PUBLIC "-//W3C//DTD SVG 20010904//EN"
 "http://www.w3.org/TR/2001/REC-SVG-20010904/DTD/svg10.dtd">
<svg version="1.0" xmlns="http://www.w3.org/2000/svg"
 width="266.000000pt" height="266.000000pt" viewBox="0 0 266.000000 266.000000"
 preserveAspectRatio="xMidYMid meet">
<metadata>
Created by potrace 1.11, written by Peter Selinger 2001-2013
</metadata>
<g transform="translate(0.000000,266.000000) scale(0.100000,-0.100000)"
fill="#000000" stroke="none">
<path d="M0 1325 l0 -1275 573 0 572 1 338 269 c187 149 342 270 345 270 9 -1
1 -7 -358 -293 l-306 -242 244 -3 c134 -1 351 -1 482 0 l238 3 -172 488 -172
488 -483 336 c-449 312 -484 335 -507 324 -39 -18 -73 -13 -99 14 -67 66 10
164 98 124 23 -10 41 0 216 121 105 73 189 136 186 140 -2 4 -117 56 -255 115
-137 60 -248 110 -246 113 5 4 166 -65 1178 -506 71 -30 126 -57 124 -60 -2
-2 -67 24 -144 57 l-141 61 -98 -11 c-54 -7 -99 -13 -101 -14 -1 -1 54 -162
122 -356 69 -195 208 -590 310 -879 101 -289 187 -533 191 -543 7 -16 29 -17
266 -17 l259 0 0 1275 0 1275 -367 0 -368 0 40 -23 c22 -12 93 -52 157 -87 65
-35 116 -66 114 -68 -3 -2 -79 37 -170 87 l-165 91 -951 0 -950 0 0 -1275z"/>
</g>
</svg>
